<?xml version="1.0" encoding="UTF-8" standalone="no"?>
<!-- Created with Inkscape (http://www.inkscape.org/) -->
<svg xmlns:dc="http://purl.org/dc/elements/1.1/" xmlns:cc="http://creativecommons.org/ns#" xmlns:rdf="http://www.w3.org/1999/02/22-rdf-syntax-ns#" xmlns:svg="http://www.w3.org/2000/svg" xmlns="http://www.w3.org/2000/svg" xmlns:xlink="http://www.w3.org/1999/xlink" xmlns:sodipodi="http://sodipodi.sourceforge.net/DTD/sodipodi-0.dtd" xmlns:inkscape="http://www.inkscape.org/namespaces/inkscape" version="1.1" width="701.80939" height="664.45471" id="svg4723" inkscape:version="0.48.2 r9819" sodipodi:docname="EMail_button.svg" inkscape:export-filename="/home/henrik/Dokumente/Politik/Gruene/2012/Zeitung/EMail_button.png" inkscape:export-xdpi="299.91638" inkscape:export-ydpi="299.91638">
  <sodipodi:namedview pagecolor="#ffffff" bordercolor="#666666" borderopacity="1" objecttolerance="10" gridtolerance="10" guidetolerance="10" inkscape:pageopacity="0" inkscape:pageshadow="2" inkscape:window-width="1680" inkscape:window-height="991" id="namedview89" showgrid="false" inkscape:zoom="0.2511491" inkscape:cx="-406.78055" inkscape:cy="-394.44835" inkscape:window-x="-3" inkscape:window-y="-3" inkscape:window-maximized="1" inkscape:current-layer="svg4723"/>
  <defs id="defs3">
    <linearGradient inkscape:collect="always" id="linearGradient5607">
      <stop style="stop-color:#000000;stop-opacity:1;" offset="0" id="stop5609"/>
      <stop style="stop-color:#000000;stop-opacity:0;" offset="1" id="stop5611"/>
    </linearGradient>
    <marker inkscape:stockid="Arrow1Send" orient="auto" refY="0.0" refX="0.0" id="Arrow1Send" style="overflow:visible;">
      <path id="path3889" d="M 0.0,0.0 L 5.0,-5.0 L -12.5,0.0 L 5.0,5.0 L 0.0,0.0 z " style="fill-rule:evenodd;stroke:#000000;stroke-width:1.0pt;marker-start:none;" transform="scale(0.2) rotate(180) translate(6,0)"/>
    </marker>
    <marker inkscape:stockid="Arrow2Mend" orient="auto" refY="0.0" refX="0.0" id="Arrow2Mend" style="overflow:visible;">
      <path id="path3901" style="font-size:12.0;fill-rule:evenodd;stroke-width:0.62500000;stroke-linejoin:round;" d="M 8.7185878,4.0337352 L -2.2072895,0.016013256 L 8.7185884,-4.0017078 C 6.9730900,-1.6296469 6.9831476,1.6157441 8.7185878,4.0337352 z " transform="scale(0.6) rotate(180) translate(0,0)"/>
    </marker>
    <marker inkscape:stockid="Arrow1Lstart" orient="auto" refY="0.0" refX="0.0" id="Arrow1Lstart" style="overflow:visible">
      <path id="path3874" d="M 0.0,0.0 L 5.0,-5.0 L -12.5,0.0 L 5.0,5.0 L 0.0,0.0 z " style="fill-rule:evenodd;stroke:#000000;stroke-width:1.0pt;marker-start:none" transform="scale(0.8) translate(12.5,0)"/>
    </marker>
    <filter color-interpolation-filters="sRGB" id="filter4142">
      <feGaussianBlur id="feGaussianBlur4144" stdDeviation="3.9708581"/>
    </filter>
    <linearGradient x1="1480.2878" y1="5124.2783" x2="1475.7883" y2="4696.8394" id="linearGradient4037" xlink:href="#linearGradient3974" gradientUnits="userSpaceOnUse" gradientTransform="translate(4.4993521,508.42709)"/>
    <linearGradient id="linearGradient3974">
      <stop id="stop3976" style="stop-color:#000000;stop-opacity:1" offset="0"/>
      <stop id="stop3978" style="stop-color:#000000;stop-opacity:0" offset="1"/>
    </linearGradient>
    <linearGradient x1="1471.3695" y1="4807.3687" x2="1469.1199" y2="4602.6475" id="linearGradient4039" xlink:href="#linearGradient3962" gradientUnits="userSpaceOnUse"/>
    <linearGradient id="linearGradient3962">
      <stop id="stop3964" style="stop-color:#ffffff;stop-opacity:1" offset="0"/>
      <stop id="stop3966" style="stop-color:#ffffff;stop-opacity:0" offset="1"/>
    </linearGradient>
    <filter color-interpolation-filters="sRGB" id="filter3958">
      <feGaussianBlur id="feGaussianBlur3960" stdDeviation="3.7445471"/>
    </filter>
    <filter color-interpolation-filters="sRGB" id="filter3997">
      <feGaussianBlur id="feGaussianBlur3999" stdDeviation="3.0873328"/>
    </filter>
    <linearGradient x1="1509.5334" y1="4492.1187" x2="1509.5334" y2="4800.3247" id="linearGradient4041" xlink:href="#linearGradient4001" gradientUnits="userSpaceOnUse" gradientTransform="translate(0,503.92774)"/>
    <linearGradient id="linearGradient4001">
      <stop id="stop4003" style="stop-color:#ffffff;stop-opacity:1" offset="0"/>
      <stop id="stop4005" style="stop-color:#ffffff;stop-opacity:0" offset="1"/>
    </linearGradient>
    <linearGradient x1="1509.5334" y1="4492.1187" x2="1509.5334" y2="4800.3247" id="linearGradient4043" xlink:href="#linearGradient4001" gradientUnits="userSpaceOnUse" gradientTransform="translate(0,503.92774)"/>
    <linearGradient x1="1498.9908" y1="4909.7725" x2="1492.0819" y2="5150.9199" id="linearGradient4112" xlink:href="#linearGradient4054" gradientUnits="userSpaceOnUse" gradientTransform="matrix(1,0,0,2.2648522,0,-6294.2897)"/>
    <linearGradient id="linearGradient4054">
      <stop id="stop4056" style="stop-color:#ffffff;stop-opacity:1" offset="0"/>
      <stop id="stop4058" style="stop-color:#ffffff;stop-opacity:0" offset="1"/>
    </linearGradient>
    <filter color-interpolation-filters="sRGB" id="filter4142-0">
      <feGaussianBlur id="feGaussianBlur4144-5" stdDeviation="3.9708581"/>
    </filter>
    <linearGradient x1="1480.2878" y1="5124.2783" x2="1475.7883" y2="4696.8394" id="linearGradient4260" xlink:href="#linearGradient3974-7" gradientUnits="userSpaceOnUse" gradientTransform="translate(-8.9987119,1471.289)"/>
    <linearGradient id="linearGradient3974-7">
      <stop id="stop3976-6" style="stop-color:#000000;stop-opacity:1" offset="0"/>
      <stop id="stop3978-6" style="stop-color:#000000;stop-opacity:0" offset="1"/>
    </linearGradient>
    <linearGradient x1="1471.3695" y1="4807.3687" x2="1469.1199" y2="4602.6475" id="linearGradient4240" xlink:href="#linearGradient3962-1" gradientUnits="userSpaceOnUse"/>
    <linearGradient id="linearGradient3962-1">
      <stop id="stop3964-4" style="stop-color:#ffffff;stop-opacity:1" offset="0"/>
      <stop id="stop3966-0" style="stop-color:#ffffff;stop-opacity:0" offset="1"/>
    </linearGradient>
    <filter color-interpolation-filters="sRGB" id="filter3958-0">
      <feGaussianBlur id="feGaussianBlur3960-1" stdDeviation="3.7445471"/>
    </filter>
    <linearGradient x1="1498.9908" y1="4909.7725" x2="1492.0819" y2="5150.9199" id="linearGradient4249" xlink:href="#linearGradient4054-2" gradientUnits="userSpaceOnUse" gradientTransform="matrix(1.042033,0,0,2.2648522,-73.936381,-5343.8375)"/>
    <linearGradient id="linearGradient4054-2">
      <stop id="stop4056-7" style="stop-color:#ffffff;stop-opacity:1" offset="0"/>
      <stop id="stop4058-8" style="stop-color:#ffffff;stop-opacity:0" offset="1"/>
    </linearGradient>
    <linearGradient x1="1498.9908" y1="4909.7725" x2="1492.0819" y2="5150.9199" id="linearGradient4913" xlink:href="#linearGradient4054-2" gradientUnits="userSpaceOnUse" gradientTransform="matrix(1.042033,0,0,2.2648522,-73.936381,-5343.8375)"/>
    <filter color-interpolation-filters="sRGB" id="filter4142-5">
      <feGaussianBlur id="feGaussianBlur4144-3" stdDeviation="3.9708581"/>
    </filter>
    <linearGradient x1="1480.2878" y1="5124.2783" x2="1475.7883" y2="4696.8394" id="linearGradient4338" xlink:href="#linearGradient3974-5" gradientUnits="userSpaceOnUse" gradientTransform="translate(-8.9987119,1954.8807)"/>
    <linearGradient id="linearGradient3974-5">
      <stop id="stop3976-5" style="stop-color:#000000;stop-opacity:1" offset="0"/>
      <stop id="stop3978-0" style="stop-color:#000000;stop-opacity:0" offset="1"/>
    </linearGradient>
    <linearGradient x1="1471.3695" y1="4807.3687" x2="1469.1199" y2="4602.6475" id="linearGradient4340" xlink:href="#linearGradient3962-12" gradientUnits="userSpaceOnUse"/>
    <linearGradient id="linearGradient3962-12">
      <stop id="stop3964-7" style="stop-color:#ffffff;stop-opacity:1" offset="0"/>
      <stop id="stop3966-8" style="stop-color:#ffffff;stop-opacity:0" offset="1"/>
    </linearGradient>
    <filter color-interpolation-filters="sRGB" id="filter3958-1">
      <feGaussianBlur id="feGaussianBlur3960-5" stdDeviation="3.7445471"/>
    </filter>
    <linearGradient x1="426.91302" y1="6054.7119" x2="424.29578" y2="5913.3818" id="linearGradient4360" xlink:href="#linearGradient4354" gradientUnits="userSpaceOnUse"/>
    <linearGradient id="linearGradient4354">
      <stop id="stop4356" style="stop-color:#999999;stop-opacity:1" offset="0"/>
      <stop id="stop4358" style="stop-color:#999999;stop-opacity:0" offset="1"/>
    </linearGradient>
    <linearGradient x1="426.91302" y1="6054.7119" x2="424.29578" y2="5913.3818" id="linearGradient5017" xlink:href="#linearGradient4354" gradientUnits="userSpaceOnUse"/>
    <linearGradient x1="426.91302" y1="6054.7119" x2="424.29578" y2="5913.3818" id="linearGradient5025" xlink:href="#linearGradient4354" gradientUnits="userSpaceOnUse"/>
    <linearGradient x1="426.91302" y1="6054.7119" x2="424.29578" y2="5913.3818" id="linearGradient5033" xlink:href="#linearGradient4354" gradientUnits="userSpaceOnUse"/>
    <linearGradient x1="1498.9908" y1="4909.7725" x2="1492.0819" y2="5150.9199" id="linearGradient4342" xlink:href="#linearGradient4054-5" gradientUnits="userSpaceOnUse" gradientTransform="matrix(1.042033,0,0,2.2648522,-74.674258,-4860.9061)"/>
    <linearGradient id="linearGradient4054-5">
      <stop id="stop4056-6" style="stop-color:#ffffff;stop-opacity:1" offset="0"/>
      <stop id="stop4058-2" style="stop-color:#ffffff;stop-opacity:0" offset="1"/>
    </linearGradient>
    <linearGradient x1="426.91302" y1="6054.7119" x2="424.29578" y2="5913.3818" id="linearGradient5061" xlink:href="#linearGradient4354" gradientUnits="userSpaceOnUse"/>
    <linearGradient x1="426.91302" y1="6054.7119" x2="424.29578" y2="5913.3818" id="linearGradient5063" xlink:href="#linearGradient4354" gradientUnits="userSpaceOnUse"/>
    <linearGradient x1="426.91302" y1="6054.7119" x2="424.29578" y2="5913.3818" id="linearGradient5065" xlink:href="#linearGradient4354" gradientUnits="userSpaceOnUse"/>
    <linearGradient x1="1498.9908" y1="4909.7725" x2="1492.0819" y2="5150.9199" id="linearGradient5067" xlink:href="#linearGradient4054-5" gradientUnits="userSpaceOnUse" gradientTransform="matrix(1.042033,0,0,2.2648522,-74.674258,-4860.9061)"/>
    <linearGradient inkscape:collect="always" xlink:href="#linearGradient3974-5" id="linearGradient3082" gradientUnits="userSpaceOnUse" gradientTransform="translate(-8.9987119,1954.8807)" x1="1480.2878" y1="5124.2783" x2="1475.7883" y2="4696.8394"/>
    <linearGradient inkscape:collect="always" xlink:href="#linearGradient3962-12" id="linearGradient3084" gradientUnits="userSpaceOnUse" x1="1471.3695" y1="4807.3687" x2="1469.1199" y2="4602.6475"/>
    <linearGradient inkscape:collect="always" xlink:href="#linearGradient4354" id="linearGradient3092" gradientUnits="userSpaceOnUse" x1="426.91302" y1="6054.7119" x2="424.29578" y2="5913.3818"/>
    <linearGradient inkscape:collect="always" xlink:href="#linearGradient4054-5" id="linearGradient3094" gradientUnits="userSpaceOnUse" gradientTransform="matrix(1.042033,0,0,2.2648522,-74.674258,-4860.9061)" x1="1498.9908" y1="4909.7725" x2="1492.0819" y2="5150.9199"/>
    <linearGradient inkscape:collect="always" xlink:href="#linearGradient4054-5" id="linearGradient3097" gradientUnits="userSpaceOnUse" gradientTransform="matrix(1.5127794,0,0,3.2880166,-1908.0144,-16286.359)" x1="1498.9908" y1="4909.7725" x2="1492.0819" y2="5150.9199"/>
    <linearGradient inkscape:collect="always" xlink:href="#linearGradient3974-5" id="linearGradient3111" gradientUnits="userSpaceOnUse" gradientTransform="matrix(1.4517577,0,0,1.4517577,-1812.6694,-6391.4876)" x1="1480.2878" y1="5124.2783" x2="1475.7883" y2="4696.8394"/>
    <linearGradient inkscape:collect="always" xlink:href="#linearGradient4354" id="linearGradient5403" gradientUnits="userSpaceOnUse" x1="426.91302" y1="6054.7119" x2="424.29578" y2="5913.3818"/>
    <linearGradient inkscape:collect="always" xlink:href="#linearGradient4354" id="linearGradient5438" gradientUnits="userSpaceOnUse" x1="426.91302" y1="6054.7119" x2="424.29578" y2="5913.3818"/>
    <linearGradient inkscape:collect="always" xlink:href="#linearGradient5607" id="linearGradient5613" x1="138.19565" y1="214.5511" x2="201.0231" y2="214.5511" gradientUnits="userSpaceOnUse"/>
  </defs>
  <path d="m 1641.4081,6390.1098 c -107.6339,0.2706 -215.2794,-0.275 -322.9062,0.3126 -24.0481,2.4514 -42.3188,26.7887 -39.1216,50.6249 0.3482,99.1509 -0.7236,198.3459 0.5904,297.4688 3.5874,23.0832 27.3087,39.961 50.3437,36.9055 106.2953,-0.2637 212.6456,0.5529 318.9063,-0.4368 23.5559,-3.0737 40.9922,-27.0775 37.9045,-50.4687 -0.2579,-98.7682 0.5433,-197.5584 -0.4045,-296.3125 -2.856,-21.5579 -23.4965,-39.0651 -45.3126,-38.0938 z" id="path4320" style="fill:#000000;fill-opacity:1;stroke:none;filter:url(#filter4142-5)" inkscape:connector-curvature="0" transform="matrix(1.4517577,0,0,1.4517577,-1799.6055,-9229.5007)"/>
  <path d="m 123.20228,51.596874 462.22049,0 c 32.09299,0 57.92948,25.836641 57.92948,57.929636 l 0,429.56058 c 0,32.09299 -25.83649,57.92949 -57.92948,57.92949 l -462.22049,0 c -32.092992,0 -57.929634,-25.8365 -57.929634,-57.92949 l 0,-429.56058 c 0,-32.092995 25.836642,-57.929636 57.929634,-57.929636 z" id="path4322" style="fill:#004ac7;fill-opacity:1;stroke:#0000ff;stroke-width:4.35500000000000043;stroke-linecap:butt;stroke-linejoin:miter;stroke-miterlimit:4;stroke-opacity:1;stroke-dashoffset:0;stroke-dasharray:none" inkscape:connector-curvature="0" inkscape:export-xdpi="300" inkscape:export-ydpi="300"/>
  <path d="m 126.46844,51.596874 462.22035,0 c 32.09299,0 57.92963,25.836641 57.92963,57.929636 l 0,429.56058 c 0,32.09299 -25.83664,57.92949 -57.92963,57.92949 l -462.22035,0 c -32.092988,0 -57.929629,-25.8365 -57.929629,-57.92949 l 0,-429.56058 c 0,-32.092995 25.836641,-57.929636 57.929629,-57.929636 z" id="path4324" style="fill:url(#linearGradient3111);fill-opacity:1;stroke:none" inkscape:connector-curvature="0"/>
  <path d="m 1655.4688,4444.75 c -4.793,0.5602 -1.703,5.5631 1.7187,5.6875 18.5154,7.8774 28.7513,29.1281 25.7113,48.75 -0.5387,89.3263 1.237,178.714 -1.0238,268 -4.5621,21.9445 -28.4416,36.7657 -50.2187,33.1528 -96.3388,-0.5175 -192.7213,1.1117 -289.0313,-0.9341 -17.2236,-3.4141 -30.0378,-18.9154 -33.4743,-35.6152 -2.4992,-9.4552 -4.5365,1.9534 -4.1674,6.0214 -0.9617,11.3873 2.9521,23.4409 12.5792,30.1251 9.322,7.6329 21.9917,8.3985 33.5,7.1186 104.3273,-0.3933 208.7048,0.892 313,-0.7436 18.4744,-4.0375 29.0924,-24.9743 25.4653,-42.75 -0.5424,-97.8864 1.1097,-195.8502 -0.9028,-293.6875 -3.5787,-14.5736 -18.0783,-25.6811 -33.1562,-25.125 z m -322.5626,0.4375 c -19.2944,2.3707 -31.8405,23.6484 -28.0916,42.125 0.5441,10.149 -1.013,20.7461 0.8727,30.6089 1.7428,6.6781 4.5781,-3.6467 3.8752,-6.6402 0.4203,-15.7135 -2.9176,-33.7229 7.9063,-46.8124 6.2555,-9.2117 16.709,-13.4206 26.1874,-18.4376 -3.582,-0.394 -7.1305,-1.1153 -10.75,-0.8437 z" transform="matrix(-1.4517577,0,0,-1.4517577,2524.6775,7027.4649)" id="path4326" style="opacity:0.87999998;fill:url(#linearGradient3084);fill-opacity:1;stroke:none;filter:url(#filter3958-1)" inkscape:connector-curvature="0"/>
  <path d="m 586.79511,74.19174 c -132.09717,4.750877 -264.68446,-0.987195 -396.96151,1.883221 -26.53319,0.884846 -53.89941,0.663017 -79.89487,3.243371 -14.885888,19.959491 -12.659037,46.025798 -14.057805,69.411728 1.276675,76.9555 0.520745,153.91564 0.63195,230.87521 33.717505,48.9762 71.862155,99.83186 128.917095,124.62425 27.00807,10.69902 58.7853,4.88516 81.25822,-12.35736 52.92456,-33.00499 95.09231,-78.34019 144.6061,-115.66531 43.71185,-38.29519 89.63704,-80.13775 149.52016,-91.93372 5.21282,-0.74635 11.93112,0.0305 9.05316,-7.2887 -0.85233,-62.55565 6.51621,-126.12624 -6.76272,-187.821438 -2.7566,-6.572978 -7.50675,-15.752878 -16.30978,-14.971252 z" id="path4336" style="fill:url(#linearGradient3097);fill-opacity:1;stroke:none" inkscape:connector-curvature="0"/>
  <g transform="matrix(6.6567224,0,0,6.6567224,-776.39523,-1091.1824)" style="font-size:72px;font-style:normal;font-variant:normal;font-weight:bold;font-stretch:normal;text-align:start;line-height:125%;letter-spacing:0px;word-spacing:0px;writing-mode:lr-tb;text-anchor:start;opacity:0.85889569;fill:#ffffff;fill-opacity:1;stroke:none;font-family:Arial;-inkscape-font-specification:Arial Bold" id="flowRoot3076">
    <path d="m 196.22266,232.06053 7.48828,0 c -2.34382,4.75781 -5.94147,8.48437 -10.79297,11.17969 -5.55474,3.09374 -12.32817,4.64061 -20.32031,4.64063 -7.73441,-2e-5 -14.41409,-1.31252 -20.03907,-3.9375 -5.62501,-2.60157 -9.8086,-6.44532 -12.55078,-11.53125 -2.74219,-5.10937 -4.11328,-10.66405 -4.11328,-16.66407 0,-6.58591 1.55859,-12.71481 4.67578,-18.38671 3.11718,-5.69528 7.3828,-9.9609 12.79688,-12.79688 5.41403,-2.85932 11.60153,-4.28901 18.5625,-4.28906 5.9062,5e-5 11.1562,1.14849 15.75,3.44531 4.59369,2.29692 8.09759,5.56645 10.51172,9.80859 2.43743,4.21879 3.65618,8.83597 3.65625,13.85157 -7e-5,5.97658 -1.83991,11.37892 -5.51954,16.20703 -4.61724,6.09375 -10.5352,9.14062 -17.7539,9.14062 -1.94536,0 -3.4102,-0.33984 -4.39453,-1.01953 -0.98442,-0.67968 -1.64067,-1.67578 -1.96875,-2.98828 -2.76566,2.67188 -5.95316,4.00781 -9.5625,4.00781 -3.89065,0 -7.12502,-1.33593 -9.70313,-4.00781 -2.5547,-2.69531 -3.83204,-6.26952 -3.83203,-10.72266 -1e-5,-5.50779 1.54686,-10.53513 4.64063,-15.08203 3.74997,-5.53121 8.55466,-8.29683 14.41406,-8.29687 4.17184,4e-5 7.25386,1.59378 9.24609,4.78125 l 0.87891,-3.90235 9.28125,0 -5.3086,25.20704 c -0.32817,1.59376 -0.49223,2.62501 -0.49218,3.09375 -5e-5,0.58594 0.12886,1.03125 0.38672,1.33593 0.2812,0.28126 0.60932,0.42189 0.98437,0.42188 1.12495,10e-6 2.57807,-0.67968 4.35938,-2.03906 2.39057,-1.78124 4.32416,-4.17187 5.80078,-7.17188 1.4765,-2.99998 2.21478,-6.10545 2.21484,-9.31641 -6e-5,-5.76559 -2.086,-10.58199 -6.25781,-14.44921 -4.17193,-3.89059 -9.99614,-5.8359 -17.47266,-5.83594 -6.35159,4e-5 -11.74221,1.30082 -16.17187,3.90234 -4.40627,2.57817 -7.73439,6.22269 -9.98438,10.9336 -2.22657,4.68752 -3.33985,9.57424 -3.33984,14.66015 -1e-5,4.94533 1.24218,9.44532 3.72656,13.5 2.5078,4.05469 6.0117,7.00781 10.51172,8.85938 4.52341,1.87499 9.69137,2.81249 15.50391,2.8125 5.60151,-1e-5 10.41792,-0.78517 14.44921,-2.35547 4.0312,-1.54688 7.27729,-3.87891 9.73829,-6.9961 m -38.00391,-14.44921 c -2e-5,2.97657 0.59763,5.16797 1.79297,6.57421 1.21872,1.40626 2.71872,2.10939 4.5,2.10938 1.3359,1e-5 2.58981,-0.32812 3.76172,-0.98438 0.89059,-0.46874 1.76949,-1.20702 2.63672,-2.21484 1.24215,-1.42968 2.30855,-3.51561 3.19921,-6.25781 0.91403,-2.74217 1.37106,-5.29686 1.3711,-7.66406 -4e-5,-2.64842 -0.62114,-4.67576 -1.86328,-6.08204 -1.21879,-1.42965 -2.76566,-2.1445 -4.64063,-2.14453 -2.01566,3e-5 -3.87894,0.78519 -5.58984,2.35547 -1.71097,1.5469 -3.00003,3.76175 -3.86719,6.64453 -0.86721,2.88284 -1.3008,5.43752 -1.30078,7.66407" style="fill:#ffffff;font-family:Arial;-inkscape-font-specification:Arial Bold" id="path3077" inkscape:connector-curvature="0"/>
  </g>
  <metadata>
    <rdf:RDF>
      <cc:Work>
        <dc:format>image/svg+xml</dc:format>
        <dc:type rdf:resource="http://purl.org/dc/dcmitype/StillImage"/>
        <cc:license rdf:resource="http://creativecommons.org/licenses/publicdomain/"/>
        <dc:publisher>
          <cc:Agent rdf:about="http://openclipart.org/">
            <dc:title>Open Clip Art Library</dc:title>
          </cc:Agent>
        </dc:publisher>
        <dc:title>Email button</dc:title>
        <dc:date>2012-01-15T11:58:30</dc:date>
        <dc:description>Email button in the style of the facebook/twitter/etc buttons</dc:description>
        <dc:source>http://openclipart.org/detail/167084/email-button-by-pnoq</dc:source>
        <dc:creator>
          <cc:Agent>
            <dc:title>pnoq</dc:title>
          </cc:Agent>
        </dc:creator>
        <dc:subject>
          <rdf:Bag>
            <rdf:li>button</rdf:li>
            <rdf:li>buttons</rdf:li>
            <rdf:li>clip art</rdf:li>
            <rdf:li>clipart</rdf:li>
            <rdf:li>email</rdf:li>
            <rdf:li>gloss</rdf:li>
            <rdf:li>glossy</rdf:li>
            <rdf:li>homepage</rdf:li>
            <rdf:li>icon</rdf:li>
            <rdf:li>internet</rdf:li>
            <rdf:li>mail</rdf:li>
            <rdf:li>symbol</rdf:li>
            <rdf:li>web page</rdf:li>
            <rdf:li>website</rdf:li>
          </rdf:Bag>
        </dc:subject>
      </cc:Work>
      <cc:License rdf:about="http://creativecommons.org/licenses/publicdomain/">
        <cc:permits rdf:resource="http://creativecommons.org/ns#Reproduction"/>
        <cc:permits rdf:resource="http://creativecommons.org/ns#Distribution"/>
        <cc:permits rdf:resource="http://creativecommons.org/ns#DerivativeWorks"/>
      </cc:License>
    </rdf:RDF>
  </metadata>
</svg>
